PLOT

One hundred years after a nuclear war has devastated the planet, society has been reborn into two
factions; the underground society and the scavangers above in the wastelands...
 
http://www.imdb.com/title/tt0086176/


Encoded By .......: BigPerm
Runtime ..........: 1h 36mn
File Size ........: 720 MiB
Resolution .......: 656 x 336
IMDb URL .........: http://www.imdb.com/title/tt0086176/
Genre ............: Horror,Sci-Fi
Language .........: English
Subtitles ........: None
Video
ID : 0
Format : MPEG-4 Visual
Format profile : Advanced Simple@L5
Format settings, BVOP : Yes
Format settings, QPel : No
Format settings, GMC : No warppoints
Format settings, Matrix : Default (H.263)
Muxing mode : Packed bitstream
Codec ID : XVID
Codec ID/Hint : XviD
Duration : 1h 36mn
Bit rate : 584 Kbps
Width : 656 pixels
Height : 336 pixels
Display aspect ratio : 1.952
Frame rate : 23.976 fps
Color space : YUV
Chroma subsampling : 4:2:0
Bit depth : 8 bits
Scan type : Progressive
Compression mode : Lossy
Bits/(Pixel*Frame) : 0.110
Stream size : 404 MiB (56%)
Writing library : XviD 64
Audio
ID : 1
Format : AC-3
Format/Info : Audio Coding 3
Mode extension : CM (complete main)
Codec ID : 2000
Duration : 1h 36mn
Bit rate mode : Constant
Bit rate : 448 Kbps
Channel(s) : 2 channels
Channel positions : Front: L R
Sampling rate : 48.0 KHz
Bit depth : 16 bits
Compression mode : Lossy
Stream size : 310 MiB (43%)
Alignment : Split accross interleaves
Interleave, duration : 42 ms (1.00 video frame)
Interleave, preload duration : 500 ms

